# xmcd
#
# Track frame offsets: 
#        150
#        25015
#        45690
#        65900
#        90460
#        115572
#        139695
#        163440
#
# Disc length: 2459 seconds
#
# Revision: 2
# Processed by: cddbd v1.5.1PL0 Copyright (c) Steve Scherf et al.
# Submitted via: ExactAudioCopy v0.95a4
#
DISCID=68099908
DTITLE=Tramaine - Freedom
DYEAR=1987
DGENRE=R&B
TTITLE0=Freedom
TTITLE1=The Rock
TTITLE2=I Belong To You
TTITLE3=Love Is Blind
TTITLE4=Daniel
TTITLE5=You and Only You
TTITLE6=Just In The Nick Of Time
TTITLE7=Power
EXTD=
EXTT0=
EXTT1=
EXTT2=
EXTT3=
EXTT4=
EXTT5=
EXTT6=
EXTT7=
PLAYORDER=
